<svg width="48" height="48" viewBox="0 0 48 48" fill="none" xmlns="http://www.w3.org/2000/svg">
<path d="M32.5613 18.4387C32.7007 18.5781 32.8114 18.7435 32.8868 18.9256C32.9623 19.1077 33.0012 19.3029 33.0012 19.5C33.0012 19.6971 32.9623 19.8923 32.8868 20.0744C32.8114 20.2565 32.7007 20.4219 32.5613 20.5613L22.0613 31.0613C21.9219 31.2007 21.7565 31.3114 21.5744 31.3868C21.3923 31.4623 21.1971 31.5012 21 31.5012C20.8029 31.5012 20.6077 31.4623 20.4256 31.3868C20.2435 31.3114 20.0781 31.2007 19.9388 31.0613L15.4388 26.5613C15.1573 26.2798 14.9992 25.898 14.9992 25.5C14.9992 25.102 15.1573 24.7202 15.4388 24.4387C15.7202 24.1573 16.102 23.9992 16.5 23.9992C16.8981 23.9992 17.2798 24.1573 17.5613 24.4387L21 27.8794L30.4388 18.4387C30.5781 18.2993 30.7435 18.1886 30.9256 18.1132C31.1077 18.0377 31.3029 17.9988 31.5 17.9988C31.6971 17.9988 31.8923 18.0377 32.0744 18.1132C32.2565 18.1886 32.4219 18.2993 32.5613 18.4387ZM43.5 24C43.5 27.8567 42.3564 31.6269 40.2137 34.8336C38.071 38.0404 35.0255 40.5397 31.4623 42.0156C27.8992 43.4916 23.9784 43.8777 20.1957 43.1253C16.4131 42.3729 12.9386 40.5157 10.2114 37.7886C7.4843 35.0615 5.62711 31.5869 4.8747 27.8043C4.12228 24.0216 4.50845 20.1008 5.98436 16.5377C7.46027 12.9745 9.95963 9.92903 13.1664 7.78634C16.3731 5.64366 20.1433 4.5 24 4.5C29.1701 4.50546 34.1268 6.56167 37.7826 10.2174C41.4383 13.8732 43.4945 18.83 43.5 24ZM40.5 24C40.5 20.7366 39.5323 17.5465 37.7193 14.8331C35.9062 12.1197 33.3293 10.0048 30.3143 8.75599C27.2993 7.50714 23.9817 7.18039 20.781 7.81704C17.5803 8.4537 14.6403 10.0252 12.3327 12.3327C10.0252 14.6403 8.45371 17.5803 7.81705 20.781C7.1804 23.9817 7.50715 27.2993 8.756 30.3143C10.0048 33.3293 12.1197 35.9062 14.8331 37.7192C17.5465 39.5323 20.7366 40.5 24 40.5C28.3746 40.495 32.5685 38.7551 35.6618 35.6618C38.7551 32.5685 40.495 28.3745 40.5 24Z" fill="#42D3FF"/>
</svg>
